<svg width="213" height="61" viewBox="0 0 213 61" fill="none" xmlns="http://www.w3.org/2000/svg">
<path fill-rule="evenodd" clip-rule="evenodd" d="M183.07 43.0495L165.157 26.8453C164.201 25.98 162.674 25.98 161.717 26.8453C160.761 27.7148 160.761 29.096 161.717 29.9613L181.336 47.7339C182.293 48.5992 183.847 48.5992 184.804 47.7339L204.45 29.9613C205.411 29.096 205.411 27.7148 204.45 26.8453C203.494 25.98 201.939 25.98 200.983 26.8453L183.07 43.0495ZM183.07 27.8521L165.157 11.6521C164.201 10.7826 162.674 10.7826 161.717 11.6521C160.761 12.5174 160.761 13.9236 161.717 14.7889L181.336 32.5365C182.293 33.4268 183.847 33.4019 184.804 32.5365L204.45 14.7889C205.411 13.9236 205.411 12.5174 204.45 11.6521C203.494 10.7826 201.939 10.7826 200.983 11.6521L183.07 27.8521Z" fill="white"/>
<path d="M19.9 48.7C16.3667 48.7 13.2667 48.05 10.6 46.75C7.96667 45.45 5.91667 43.65 4.45 41.35C3.01667 39.0167 2.3 36.3333 2.3 33.3C2.3 30.2667 2.83333 27.4667 3.9 24.9C4.96667 22.3333 6.48333 20.1167 8.45 18.25C10.4167 16.35 12.75 14.8833 15.45 13.85C18.1833 12.8167 21.2167 12.3 24.55 12.3C28.05 12.3 31.0667 12.85 33.6 13.95C36.1667 15.05 38.2333 16.65 39.8 18.75L32.7 24.35C31.5333 22.9167 30.2667 21.9167 28.9 21.35C27.5333 20.7833 25.9333 20.5 24.1 20.5C22.3 20.5 20.6667 20.8 19.2 21.4C17.7667 22 16.5333 22.85 15.5 23.95C14.4667 25.05 13.6667 26.35 13.1 27.85C12.5667 29.3167 12.3 30.9167 12.3 32.65C12.3 34.2167 12.65 35.6 13.35 36.8C14.05 37.9667 15.0667 38.8833 16.4 39.55C17.7333 40.1833 19.35 40.5 21.25 40.5C22.7833 40.5 24.25 40.25 25.65 39.75C27.0833 39.25 28.5167 38.4167 29.95 37.25L33.7 44.5C31.9 45.8333 29.8167 46.8667 27.45 47.6C25.0833 48.3333 22.5667 48.7 19.9 48.7ZM25.25 42.95L27.9 29.75H36.65L33.7 44.5L25.25 42.95ZM50.4766 48.45C48.2766 48.45 46.3599 47.9833 44.7266 47.05C43.1266 46.0833 41.9932 44.6667 41.3266 42.8C40.6599 40.9333 40.5932 38.6167 41.1266 35.85L44.1266 20.9H53.6266L50.8266 34.95C50.4599 36.6833 50.5599 38.0167 51.1266 38.95C51.7266 39.8833 52.7766 40.35 54.2766 40.35C55.8766 40.35 57.2099 39.8667 58.2766 38.9C59.3766 37.9 60.1266 36.3667 60.5266 34.3L63.2266 20.9H72.7266L67.3266 48H58.3266L59.8766 40.35L61.0766 42.55C59.7766 44.5833 58.1766 46.0833 56.2766 47.05C54.4099 47.9833 52.4766 48.45 50.4766 48.45ZM73.4457 48L78.8457 20.9H88.2957L82.8957 48H73.4457ZM84.8957 17.9C83.229 17.9 81.8957 17.45 80.8957 16.55C79.929 15.6167 79.4457 14.5 79.4457 13.2C79.4457 11.6667 79.9957 10.3833 81.0957 9.35C82.229 8.31666 83.7124 7.8 85.5457 7.8C87.2124 7.8 88.5457 8.23333 89.5457 9.1C90.5457 9.96666 91.0457 11.05 91.0457 12.35C91.0457 13.9833 90.479 15.3167 89.3457 16.35C88.2124 17.3833 86.729 17.9 84.8957 17.9ZM101.522 48.45C99.5885 48.45 97.7385 47.9667 95.9719 47C94.2385 46.0333 92.8219 44.6333 91.7219 42.8C90.6219 40.9667 90.0719 38.7333 90.0719 36.1C90.0719 33.8333 90.4552 31.75 91.2219 29.85C91.9885 27.95 93.0385 26.3 94.3719 24.9C95.7385 23.5 97.3052 22.4167 99.0719 21.65C100.872 20.85 102.789 20.45 104.822 20.45C106.789 20.45 108.505 20.7833 109.972 21.45C111.472 22.1167 112.639 23.2 113.472 24.7C114.305 26.1667 114.722 28.1 114.722 30.5C114.722 32.9 114.439 35.1833 113.872 37.35C113.305 39.4833 112.455 41.3833 111.322 43.05C110.222 44.7167 108.839 46.0333 107.172 47C105.539 47.9667 103.655 48.45 101.522 48.45ZM104.822 40.8C106.122 40.8 107.239 40.4833 108.172 39.85C109.139 39.2167 109.889 38.3333 110.422 37.2C110.989 36.0667 111.272 34.75 111.272 33.25C111.272 31.6833 110.822 30.4333 109.922 29.5C109.022 28.5333 107.772 28.05 106.172 28.05C104.939 28.05 103.822 28.3833 102.822 29.05C101.855 29.6833 101.089 30.5667 100.522 31.7C99.9885 32.8333 99.7219 34.15 99.7219 35.65C99.7219 37.2167 100.172 38.4667 101.072 39.4C101.972 40.3333 103.222 40.8 104.822 40.8ZM108.822 48L109.772 43.45L111.522 34.5L112.772 25.55L115.722 10.9H125.222L117.822 48H108.822ZM139.234 48.45C136.334 48.45 133.801 47.95 131.634 46.95C129.501 45.9167 127.834 44.4833 126.634 42.65C125.434 40.7833 124.834 38.6 124.834 36.1C124.834 33.1 125.517 30.4333 126.884 28.1C128.251 25.7333 130.167 23.8667 132.634 22.5C135.101 21.1333 137.967 20.45 141.234 20.45C144.001 20.45 146.367 20.95 148.334 21.95C150.334 22.95 151.867 24.35 152.934 26.15C154.034 27.9167 154.584 29.9833 154.584 32.35C154.584 33.15 154.534 33.9167 154.434 34.65C154.334 35.3833 154.201 36.1 154.034 36.8H132.284L133.184 31.8H149.634L145.684 33.25C145.951 31.95 145.901 30.8667 145.534 30C145.201 29.1 144.617 28.4167 143.784 27.95C142.984 27.45 141.984 27.2 140.784 27.2C139.251 27.2 137.984 27.5833 136.984 28.35C136.017 29.1167 135.284 30.1667 134.784 31.5C134.317 32.8 134.084 34.2167 134.084 35.75C134.084 37.6167 134.601 39 135.634 39.9C136.667 40.7667 138.217 41.2 140.284 41.2C141.484 41.2 142.651 41.0167 143.784 40.65C144.951 40.25 145.967 39.7 146.834 39L150.784 44.95C149.084 46.2167 147.234 47.1167 145.234 47.65C143.267 48.1833 141.267 48.45 139.234 48.45Z" fill="url(#paint0_linear_92_46)"/>
<defs>
<linearGradient id="paint0_linear_92_46" x1="22" y1="59.7551" x2="199.994" y2="59.1786" gradientUnits="userSpaceOnUse">
<stop stop-color="#ECECEC"/>
<stop offset="1" stop-color="#F1F1F1"/>
</linearGradient>
</defs>
</svg>
